<svg width="45" height="45" viewBox="0 0 45 45" fill="none" xmlns="http://www.w3.org/2000/svg">
<path d="M22.5 0C10.0763 0 0 10.3291 0 23.0688C0 33.2614 6.44625 41.9083 15.3881 44.9592C16.5112 45.1726 16.875 44.4574 16.875 43.85V39.5553C10.6162 40.951 9.31313 36.8332 9.31313 36.8332C8.28938 34.1668 6.81375 33.4575 6.81375 33.4575C4.77188 32.0253 6.96938 32.056 6.96938 32.056C9.22875 32.2175 10.4175 34.434 10.4175 34.434C12.4238 37.9597 15.6806 36.9409 16.965 36.3507C17.1656 34.8608 17.7488 33.8419 18.3938 33.2671C13.3969 32.6808 8.14312 30.7027 8.14312 21.8654C8.14312 19.3451 9.0225 17.2881 10.4606 15.6733C10.2281 15.0908 9.4575 12.7436 10.68 9.56779C10.68 9.56779 12.57 8.94877 16.8694 11.9323C18.6637 11.421 20.5875 11.1653 22.5 11.1557C24.4125 11.1653 26.3381 11.421 28.1362 11.9323C32.4319 8.94877 34.3181 9.56779 34.3181 9.56779C35.5425 12.7455 34.7719 15.0928 34.5394 15.6733C35.9831 17.2881 36.855 19.347 36.855 21.8654C36.855 30.7257 31.5919 32.677 26.5819 33.2479C27.3881 33.9631 28.125 35.3664 28.125 37.5195V43.85C28.125 44.4632 28.485 45.1841 29.6269 44.9573C38.5612 41.9026 45 33.2575 45 23.0688C45 10.3291 34.9256 0 22.5 0Z" fill="#444444"/>
</svg>
