<svg width="42" height="42" viewBox="0 0 42 42" fill="none" xmlns="http://www.w3.org/2000/svg">
<path fill-rule="evenodd" clip-rule="evenodd" d="M20.9907 3.78317C26.6 3.78317 27.258 3.80885 29.4747 3.9092C31.5257 4.00256 32.634 4.3433 33.376 4.6327C34.3583 5.01778 35.0583 5.46821 35.791 6.20104C36.526 6.93387 36.9833 7.63403 37.359 8.61891C37.6413 9.36108 37.9913 10.4697 38.0823 12.5188C38.1827 14.7359 38.2083 15.3941 38.2083 21.0047C38.2083 26.6152 38.185 27.2734 38.0823 29.4906C37.9913 31.5397 37.6507 32.6483 37.359 33.3904C37.0233 34.3033 36.4875 35.1295 35.791 35.8083C35.1149 36.5065 34.2892 37.0419 33.376 37.3743C32.634 37.659 31.5257 38.0091 29.4747 38.1001C27.258 38.2005 26.6 38.2262 20.9907 38.2262C15.3837 38.2262 14.7257 38.2005 12.509 38.1001C10.458 38.0068 9.34967 37.666 8.60767 37.3766C7.69583 37.0405 6.87069 36.5046 6.19267 35.8083C5.49344 35.1317 4.95725 34.3049 4.62467 33.3904C4.34233 32.6483 3.99233 31.5397 3.90133 29.4906C3.801 27.2734 3.77533 26.6152 3.77533 21.0047C3.77533 15.3941 3.79867 14.7359 3.899 12.5188C3.99233 10.4697 4.333 9.36108 4.62467 8.61891C5.00733 7.63403 5.45767 6.93387 6.19267 6.20104C6.92533 5.46821 7.62533 5.01078 8.60767 4.63503C9.34967 4.3503 10.458 4.00022 12.509 3.9092C14.7257 3.80185 15.3837 3.78317 20.9907 3.78317V3.78317ZM20.9907 0C15.2927 0 14.574 0.0233383 12.334 0.126028C10.101 0.22405 8.575 0.583463 7.24267 1.09924C5.84101 1.62649 4.57216 2.45506 3.52567 3.52645C2.359 4.69338 1.64267 5.8673 1.099 7.24428C0.583333 8.57691 0.224 10.1032 0.126 12.3437C0.0233331 14.5772 0 15.2961 0 20.9953C0 26.6969 0.0233331 27.4134 0.126 29.6563C0.224 31.8898 0.583333 33.4138 1.099 34.7581C1.63333 36.142 2.359 37.309 3.52567 38.4759C4.69233 39.6428 5.866 40.3593 7.24267 40.9008C8.575 41.4165 10.101 41.7759 12.341 41.8763C14.5833 41.9767 15.2927 42 21 42C26.7073 42 27.4167 41.9767 29.6567 41.8763C31.892 41.7759 33.4157 41.4165 34.7573 40.9008C36.159 40.3735 37.4278 39.5449 38.4743 38.4735C39.641 37.3066 40.3573 36.1327 40.901 34.7581C41.4167 33.4231 41.776 31.8991 41.874 29.6563C41.9743 27.4158 42 26.7063 42 20.9977C42 15.2867 41.9767 14.5796 41.874 12.3367C41.776 10.1032 41.4167 8.57691 40.901 7.23494C40.3738 5.83301 39.5454 4.56388 38.4743 3.51711C37.3077 2.35019 36.134 1.6337 34.7573 1.08991C33.425 0.576461 31.899 0.217048 29.659 0.116692C27.4073 0.0233384 26.691 0 20.9907 0V0ZM20.9907 10.2106C18.1582 10.2523 15.4558 11.407 13.4675 13.4252C11.4792 15.4434 10.3646 18.1631 10.3646 20.9965C10.3646 23.8299 11.4792 26.5496 13.4675 28.5678C15.4558 30.586 18.1582 31.7407 20.9907 31.7824C23.8504 31.7805 26.5924 30.6435 28.6145 28.6209C30.6366 26.5983 31.7735 23.8557 31.7753 20.9953C31.7735 18.1352 30.6366 15.3928 28.6144 13.3706C26.5922 11.3484 23.8502 10.2118 20.9907 10.2106V10.2106ZM20.9907 27.9969C20.0608 28.0139 19.1369 27.8454 18.2729 27.5012C17.4089 27.157 16.6221 26.6441 15.9585 25.9923C15.2949 25.3406 14.7678 24.5631 14.408 23.7054C14.0482 22.8476 13.8629 21.9267 13.8629 20.9965C13.8629 20.0663 14.0482 19.1454 14.408 18.2876C14.7678 17.4298 15.2949 16.6524 15.9585 16.0007C16.6221 15.3489 17.4089 14.836 18.2729 14.4918C19.1369 14.1476 20.0608 13.9791 20.9907 13.9961C22.8472 13.9961 24.6277 14.7338 25.9404 16.0468C27.2532 17.3599 27.9907 19.1407 27.9907 20.9977C27.9907 22.8546 27.2532 24.6355 25.9404 25.9485C24.6277 27.2616 22.8472 27.9992 20.9907 27.9992V27.9969ZM34.7177 9.78584C34.7177 10.1165 34.6525 10.444 34.526 10.7495C34.3995 11.055 34.214 11.3327 33.9803 11.5665C33.7465 11.8003 33.4689 11.9858 33.1635 12.1124C32.858 12.2389 32.5306 12.3041 32.2 12.3041C31.8694 12.3041 31.542 12.2389 31.2365 12.1124C30.9311 11.9858 30.6535 11.8003 30.4197 11.5665C30.186 11.3327 30.0005 11.055 29.874 10.7495C29.7475 10.444 29.6823 10.1165 29.6823 9.78584C29.6823 9.11797 29.9476 8.47744 30.4197 8.00519C30.8919 7.53293 31.5323 7.26761 32.2 7.26761C32.8677 7.26761 33.5081 7.53293 33.9803 8.00519C34.4524 8.47744 34.7177 9.11797 34.7177 9.78584Z" fill="#444444"/>
</svg>
