<svg width="40" height="37" viewBox="0 0 40 37" fill="none" xmlns="http://www.w3.org/2000/svg">
<path d="M0 4.29798C0 3.05216 0.450463 2.02439 1.35135 1.21465C2.25224 0.40487 3.42344 0 4.86486 0C6.28058 0 7.42598 0.398628 8.30116 1.19596C9.20205 2.01818 9.65251 3.08954 9.65251 4.4101C9.65251 5.60606 9.21494 6.60267 8.33977 7.4C7.43888 8.22222 6.25483 8.63333 4.78764 8.63333H4.74903C3.33332 8.63333 2.18791 8.22222 1.31274 7.4C0.437568 6.57778 0 5.54376 0 4.29798ZM0.50193 37V12.0343H9.07336V37H0.50193ZM13.8224 37H22.3938V23.0596C22.3938 22.1875 22.4968 21.5148 22.7027 21.0414C23.063 20.1943 23.61 19.4779 24.3436 18.8924C25.0772 18.3069 25.9974 18.0141 27.1042 18.0141C29.9871 18.0141 31.4286 19.8953 31.4286 23.6576V37H40V22.6859C40 18.9983 39.0991 16.2015 37.2973 14.2955C35.4955 12.3894 33.1146 11.4364 30.1544 11.4364C26.834 11.4364 24.2471 12.8192 22.3938 15.5848V15.6596H22.3552L22.3938 15.5848V12.0343H13.8224C13.8739 12.8316 13.8996 15.3107 13.8996 19.4717C13.8996 23.6326 13.8739 29.4754 13.8224 37Z" fill="#444444"/>
</svg>
