<svg width="38" height="43" viewBox="0 0 38 43" fill="none" xmlns="http://www.w3.org/2000/svg">
<path fill-rule="evenodd" clip-rule="evenodd" d="M19.4211 3.06348H18.2632C13.9357 3.06348 10.9919 3.06985 8.78748 3.36623C6.66932 3.65101 5.68826 4.15312 5.02054 4.82084C4.35283 5.48855 3.85072 6.46961 3.56594 8.58777C3.26955 10.7922 3.26318 13.736 3.26318 18.0635V24.1758C3.26318 28.5032 3.26955 31.447 3.56594 33.6515C3.85072 35.7696 4.35283 36.7507 5.02054 37.4184C5.68826 38.0861 6.66932 38.5882 8.78748 38.873C10.9919 39.1694 13.9357 39.1758 18.2632 39.1758H19.4211C23.7485 39.1758 26.6923 39.1694 28.8968 38.873C31.0149 38.5882 31.996 38.0861 32.6637 37.4184C33.3314 36.7507 33.8335 35.7696 34.1183 33.6515C34.4147 31.447 34.4211 28.5032 34.4211 24.1758V18.0635C34.4211 13.736 34.4147 10.7922 34.1183 8.58777C33.8335 6.46961 33.3314 5.48855 32.6637 4.82084C31.996 4.15312 31.0149 3.65101 28.8968 3.36623C26.6923 3.06985 23.7485 3.06348 19.4211 3.06348ZM2.89922 2.69952C0.263184 5.33555 0.263184 9.57819 0.263184 18.0635V24.1758C0.263184 32.661 0.263184 36.9037 2.89922 39.5397C5.53526 42.1758 9.7779 42.1758 18.2632 42.1758H19.4211C27.9064 42.1758 32.149 42.1758 34.785 39.5397C37.4211 36.9037 37.4211 32.661 37.4211 24.1758V18.0635C37.4211 9.5782 37.4211 5.33555 34.785 2.69952C32.149 0.0634766 27.9064 0.0634766 19.4211 0.0634766H18.2632C9.7779 0.0634766 5.53526 0.0634766 2.89922 2.69952ZM7.69476 8.49506C7.69476 7.94277 8.14248 7.49506 8.69476 7.49506H14.1263C14.6786 7.49506 15.1263 7.94277 15.1263 8.49506V13.9266C15.1263 14.4789 14.6786 14.9266 14.1263 14.9266H8.69476C8.14248 14.9266 7.69476 14.4789 7.69476 13.9266V8.49506ZM9.55266 17.4038C8.52657 17.4038 7.69476 18.2356 7.69476 19.2617C7.69476 20.2878 8.52657 21.1196 9.55266 21.1196H28.1316C29.1577 21.1196 29.9895 20.2878 29.9895 19.2617C29.9895 18.2356 29.1577 17.4038 28.1316 17.4038H9.55266ZM7.69476 25.4547C7.69476 24.4286 8.52657 23.5968 9.55266 23.5968H28.1316C29.1577 23.5968 29.9895 24.4286 29.9895 25.4547C29.9895 26.4808 29.1577 27.3126 28.1316 27.3126H9.55266C8.52657 27.3126 7.69476 26.4808 7.69476 25.4547ZM9.55266 29.7898C8.52657 29.7898 7.69476 30.6216 7.69476 31.6477C7.69476 32.6738 8.52657 33.5056 9.55266 33.5056H24.4158C25.4419 33.5056 26.2737 32.6738 26.2737 31.6477C26.2737 30.6216 25.4419 29.7898 24.4158 29.7898H9.55266Z" fill="#444444"/>
</svg>
