<?xml version="1.0" encoding="UTF-8" standalone="no"?>
<svg
   xmlns:dc="http://purl.org/dc/elements/1.1/"
   xmlns:cc="http://creativecommons.org/ns#"
   xmlns:rdf="http://www.w3.org/1999/02/22-rdf-syntax-ns#"
   xmlns:svg="http://www.w3.org/2000/svg"
   xmlns="http://www.w3.org/2000/svg"
   viewBox="0 0 793.27997 1123"
   height="1123"
   width="793.27997"
   xml:space="preserve"
   id="svg2"
   version="1.1"><metadata
     id="metadata8"><rdf:RDF><cc:Work
         rdf:about=""><dc:format>image/svg+xml</dc:format><dc:type
           rdf:resource="http://purl.org/dc/dcmitype/StillImage" /></cc:Work></rdf:RDF></metadata><defs
     id="defs6"><clipPath
       id="clipPath14"
       clipPathUnits="userSpaceOnUse"><path
         id="path12"
         d="M 0,6.63003 H 594.95996 V 848.88 H 0 Z" /></clipPath><clipPath
       id="clipPath24"
       clipPathUnits="userSpaceOnUse"><path
         style="clip-rule:evenodd"
         id="path22"
         d="M 0,0 H 2479.1665 V 3506.4282 H 0 Z" /></clipPath><clipPath
       id="clipPath36"
       clipPathUnits="userSpaceOnUse"><path
         style="clip-rule:evenodd"
         id="path34"
         d="M 0,0 H 2479.1665 V 3506.4282 H 0 Z" /></clipPath><clipPath
       id="clipPath48"
       clipPathUnits="userSpaceOnUse"><path
         style="clip-rule:evenodd"
         id="path46"
         d="M 247.82323,0 H 2230.4089 V 54.740253 H 247.82323 Z" /></clipPath><clipPath
       id="clipPath60"
       clipPathUnits="userSpaceOnUse"><path
         style="clip-rule:evenodd"
         id="path58"
         d="M 0,0 H 2479.1665 V 3506.4282 H 0 Z" /></clipPath><clipPath
       id="clipPath226"
       clipPathUnits="userSpaceOnUse"><path
         style="clip-rule:evenodd"
         id="path224"
         d="m 158.66882,728.81689 h 84.30416 v 56.20276 h -84.30416 z" /></clipPath><clipPath
       id="clipPath238"
       clipPathUnits="userSpaceOnUse"><path
         style="clip-rule:evenodd"
         id="path236"
         d="m 1543.0281,726.90723 h 62.4475 v 68.69226 h -62.4475 z" /></clipPath><clipPath
       id="clipPath254"
       clipPathUnits="userSpaceOnUse"><path
         style="clip-rule:evenodd"
         id="path252"
         d="m 736.77649,736.61981 h 68.69226 v 49.95801 h -68.69226 z" /></clipPath><clipPath
       id="clipPath268"
       clipPathUnits="userSpaceOnUse"><path
         style="clip-rule:evenodd"
         id="path266"
         d="M 0,0 H 2479.1665 V 3506.4282 H 0 Z" /></clipPath><clipPath
       id="clipPath320"
       clipPathUnits="userSpaceOnUse"><path
         style="clip-rule:evenodd"
         id="path318"
         d="m 737.42017,829.38281 h 68.69226 v 68.69226 h -68.69226 z" /></clipPath><clipPath
       id="clipPath332"
       clipPathUnits="userSpaceOnUse"><path
         style="clip-rule:evenodd"
         id="path330"
         d="M 0,0 H 2479.1665 V 3506.4282 H 0 Z" /></clipPath></defs><g
     clip-path="url(#clipPath14)"
     transform="matrix(1.3333333,0,0,-1.3333333,0,1131.84)"
     id="g10"><g
       transform="matrix(0.31999998,0,0,0.31999998,0,2.8296e-5)"
       id="g16"><g
         id="g18"><g
           clip-path="url(#clipPath24)"
           id="g20"><g
             transform="scale(3.122376)"
             id="g26"><path
               id="path28"
               style="fill:#ffffff;fill-opacity:1;fill-rule:nonzero;stroke:none"
               d="M 0,0 H 794 V 1123 H 0 Z" /></g></g></g><g
         id="g30"><g
           clip-path="url(#clipPath36)"
           id="g32"><g
             transform="scale(3.122376)"
             id="g38"><path
               id="path40"
               style="fill:#ffffff;fill-opacity:1;fill-rule:nonzero;stroke:none"
               d="M 0,0 H 794 V 1123 H 0 Z" /></g></g></g><g
         id="g42"><g
           clip-path="url(#clipPath48)"
           id="g44"><g
             transform="matrix(7.7444758,0,0,0.42396769,247.82323,-53.795475)"
             id="g50"><path
               id="path52"
               style="fill:#464a4e;fill-opacity:1;fill-rule:nonzero;stroke:none"
               d="M 0,0 H 256 V 256 H 0 Z" /></g></g></g><g
         id="g54"><g
           clip-path="url(#clipPath60)"
           id="g56"><g
             transform="matrix(3.1246583,0,0,3.122376,769.29901,1256.0182)"
             id="g62"><path
               id="path64"
               style="fill:none;stroke:#464a4e;stroke-width:1;stroke-linecap:butt;stroke-linejoin:miter;stroke-miterlimit:10;stroke-dasharray:none;stroke-opacity:1"
               d="M 0.5,0.5 H 491.15189" /></g><g
             transform="matrix(3.122376,0,0,3.122376,158.66882,1224.7943)"
             id="g66"><text
               id="text70"
               style="font-variant:normal;font-weight:900;font-size:16px;font-family:Lato;-inkscape-font-specification:Lato-Heavy;writing-mode:lr-tb;fill:#464a4e;fill-opacity:1;fill-rule:nonzero;stroke:none"
               transform="translate(0,16)"><tspan
                 id="tspan68"
                 y="0"
                 x="0 14.671884 32.335724 49.751564 65.783432 82.503288 97.655167 107.9911 126.45493">EDUCATION</tspan></text>
</g><g
             transform="matrix(3.122376,0,0,3.122376,160.98419,1478.9558)"
             id="g72"><text
               id="text76"
               style="font-variant:normal;font-weight:bold;font-size:13.32999992px;font-family:Raleway;-inkscape-font-specification:Raleway-Bold;writing-mode:lr-tb;fill:#706f6f;fill-opacity:1;fill-rule:nonzero;stroke:none"
               transform="translate(0,13)"><tspan
                 id="tspan74"
                 y="0"
                 x="0 8.4367714 18.699501 27.269558 31.348053 41.784046 49.701027 60.043713 63.402496 66.867905 75.437958 83.354935 88.779556 92.444885">SUPINFO, Paris</tspan></text>
</g><g
             transform="matrix(3.122376,0,0,3.122376,491.96613,1471.0458)"
             id="g78"><text
               id="text82"
               style="font-variant:normal;font-weight:normal;font-size:13.32999992px;font-family:Lato;-inkscape-font-specification:Lato-Regular;writing-mode:lr-tb;fill:#464a4e;fill-opacity:1;fill-rule:nonzero;stroke:none"
               transform="translate(0,16)"><tspan
                 id="tspan80"
                 y="0"
                 x="0 7.7302856 15.460571 23.190857 30.921143 34.33313 39.284515 42.696503 50.426788 58.157074 65.88736">2022 - 2027</tspan></text>
</g><g
             transform="matrix(3.122376,0,0,3.122376,163.5434,1393.6108)"
             id="g84"><text
               id="text88"
               style="font-variant:normal;font-weight:bold;font-size:13.32999992px;font-family:Raleway;-inkscape-font-specification:Raleway-Bold;writing-mode:lr-tb;fill:#464a4e;fill-opacity:1;fill-rule:nonzero;stroke:none"
               transform="translate(0,13)"><tspan
                 id="tspan86"
                 y="0"
                 x="0 12.848775 23.125238 32.615341 42.185413 51.515587 61.698757 66.217499 77.613518 86.583832 91.102577 100.43275 111.92208 122.90494 128.03676 139.52608 148.85625 158.18642 168.36958 173.5014 184.99072">MASTER OF ENGINEERING</tspan></text>
</g><g
             transform="matrix(3.122376,0,0,3.122376,170.02852,1570.5455)"
             id="g90"><text
               id="text94"
               style="font-variant:normal;font-weight:normal;font-size:13.32999992px;font-family:Raleway;-inkscape-font-specification:Raleway-Regular;writing-mode:lr-tb;fill:#706f6f;fill-opacity:1;fill-rule:nonzero;stroke:none"
               transform="translate(0,13)"><tspan
                 id="tspan92"
                 y="0"
                 x="0 8.3967934 16.433723 24.523968 28.189301 32.854237 41.037773 49.074703 57.631439 65.161896 77.677063 85.767303 93.80423 98.535797 106.06625 109.95816 116.71559 120.38092 123.5531 131.59003 135.25536 146.35774 154.44798 162.93806 166.60339 174.13385 182.17078 190.72751 194.39284 201.92329 210.41338 218.90346 222.79536 225.96754 233.55132 241.08177 245.81334 248.98552 257.1824 265.21933 268.88467 277.44141 285.53165 292.90219 300.99243 304.88434 313.08121 321.57129 334.08646 342.1767 350.21362 354.94519 358.21066 361.87601 374.39117 381.92163 389.95856 397.48901 405.99243 414.08267 426.59784 434.68808 442.72501 447.45657 450.72205 454.38739 462.94412 470.47458 475.20615 482.7366 486.40195 498.91711 506.44757 514.4845 522.01495 530.51837 538.60864 551.12384 559.21411 567.25104 571.9826 575.24811 578.91345 585.6709 593.16138 599.91882 604.65039 612.74066 625.25586 632.01331 635.27881 638.94415 646.47461 654.51154">The fundamentals in web and application development, management, data management, systems, and</tspan></text>
<text
               id="text98"
               style="font-variant:normal;font-weight:normal;font-size:13.32999992px;font-family:Raleway;-inkscape-font-specification:Raleway-Regular;writing-mode:lr-tb;fill:#706f6f;fill-opacity:1;fill-rule:nonzero;stroke:none"
               transform="translate(0,31)"><tspan
                 id="tspan96"
                 y="0"
                 x="0 8.0369301 16.127174 20.858746 31.961136 40.158009 45.102837 52.433376 59.190811">networks.</tspan></text>
</g><g
             transform="matrix(3.122376,0,0,3.122376,168.4792,1955.8468)"
             id="g100"><text
               id="text104"
               style="font-variant:normal;font-weight:normal;font-size:13.32999992px;font-family:Raleway;-inkscape-font-specification:Raleway-Regular;writing-mode:lr-tb;fill:#706f6f;fill-opacity:1;fill-rule:nonzero;stroke:none"
               transform="translate(0,13)"><tspan
                 id="tspan102"
                 y="0"
                 x="0 3.5720248 11.608954 15.274287 27.229675 34.760136 39.491707 47.528637 55.618881 68.134048 75.664505 80.396072 83.568253 91.152023 97.909454 101.57478 109.10524 117.14217 125.6989 129.36423 137.92096 145.95789 153.44836 160.2058 163.37798 170.96175 177.71918 183.61029 193.02002 201.05695 209.14719 221.66235 224.83453 231.59196 236.32353 241.26836 248.75883 251.54451 255.20984 269.41766 272.58984 277.32141 285.35834 289.02368 296.55414 300.21948 306.97693 315.46701 323.55725 331.14102 334.3132 341.84366 345.73557 348.90775 355.73184 363.2623 367.99387 371.16605 379.36292 387.39984 391.06519 394.23737 402.27429 405.93964 417.89502 425.42548 430.15704 438.19397 446.28421 458.79938 466.32983 471.0614 474.23358 481.81735 488.5748 492.24014 500.6236 507.6076 516.09772 524.18799 529.13281 533.86438 537.03656 543.79401 551.88428 555.14978 558.81512 567.01202 575.50214 580.2337 587.76416 590.93634 598.97327 607.06354 615.6203 619.28564 630.38806 633.56024 638.29181">In Mathematics and Physics-Chemistry. With a specialization in Mathematics Expertise, obtained with</tspan></text>
<text
               id="text108"
               style="font-variant:normal;font-weight:normal;font-size:13.32999992px;font-family:Raleway;-inkscape-font-specification:Raleway-Regular;writing-mode:lr-tb;fill:#706f6f;fill-opacity:1;fill-rule:nonzero;stroke:none"
               transform="translate(0,31)"><tspan
                 id="tspan106"
                 y="0"
                 x="0 8.0369301 16.233803 24.270733 32.467606 37.412434 44.169868 47.835201 51.687119 64.202286 72.292526 80.329453 85.06102 88.2332 96.430069 104.467 108.13232 117.27548 120.44766 128.5379 136.57483 140.41342 143.1991 146.86443 156.14087 160.03278 166.79021 174.98708 178.25255 181.91788 189.50165 197.69852 210.21368 218.70377 222.59567 230.68591 235.41748 243.50772 252.06445 255.72978 263.31357 271.51044 279.69397 284.63879 291.39624 299.48648 310.58887 318.78574 323.73056 331.0611 334.72644 337.89862 345.93555 349.60089 357.13135 365.16827 368.83362 377.21707 385.254 393.75742 397.64932 400.8215 407.57895 415.61588 419.28122 427.66467 435.84821 440.79303 448.9899 457.47998 465.57022 473.10068 481.1376 484.80295 492.38672 496.27863 503.80908 510.56653 517.32397">honors (mention Bien). Also, completed coursework in an English European class.</tspan></text>
</g><g
             transform="matrix(3.122376,0,0,3.122376,169.98755,1777.6631)"
             id="g110"><text
               id="text114"
               style="font-variant:normal;font-weight:bold;font-size:13.32999992px;font-family:Raleway;-inkscape-font-specification:Raleway-Bold;writing-mode:lr-tb;fill:#464a4e;fill-opacity:1;fill-rule:nonzero;stroke:none"
               transform="translate(0,13)"><tspan
                 id="tspan112"
                 y="0"
                 x="0 11.24941 16.381235 27.36409 38.613499 43.13224 52.622341 63.085403 74.334816 85.730835 97.126854 106.23045 110.7492 121.61211 126.74393 136.36732 145.47092 156.86693 169.7157">HIGH SCHOOL DIPLOMA</tspan></text>
</g><g
             transform="matrix(3.122376,0,0,3.122376,160.98419,1863.0082)"
             id="g116"><text
               id="text120"
               style="font-variant:normal;font-weight:bold;font-size:13.32999992px;font-family:Raleway;-inkscape-font-specification:Raleway-Bold;writing-mode:lr-tb;fill:#706f6f;fill-opacity:1;fill-rule:nonzero;stroke:none"
               transform="translate(0,13)"><tspan
                 id="tspan118"
                 y="0"
                 x="0 7.9169803 13.341605 21.258585 29.575407 37.3591 45.609287 49.074699 54.912502 58.377914 66.947968 74.864944 80.289566 83.954895 90.845612 94.31102 106.98611 115.2363 120.62094 126.04556 134.38904 143.1057 151.44917 155.94084 159.60617 164.99081 172.90779 181.22461 184.69002 192.60699 198.03162 206.2818">France - Paris metropolitan area</tspan></text>
</g><g
             transform="matrix(3.122376,0,0,3.122376,863.3952,1855.3063)"
             id="g122"><text
               id="text126"
               style="font-variant:normal;font-weight:normal;font-size:13.32999992px;font-family:Lato;-inkscape-font-specification:Lato-Regular;writing-mode:lr-tb;fill:#464a4e;fill-opacity:1;fill-rule:nonzero;stroke:none"
               transform="translate(0,16)"><tspan
                 id="tspan124"
                 y="0"
                 x="0 5.6311188 13.061523 16.206955 23.077576 26.489563 34.219849 41.950134 49.68042">July 2021</tspan></text>
</g><g
             transform="matrix(3.122376,0,0,3.122376,169.26563,2358.6333)"
             id="g128"><text
               id="text132"
               style="font-variant:normal;font-weight:normal;font-size:13.32999992px;font-family:Raleway;-inkscape-font-specification:Raleway-Regular;writing-mode:lr-tb;fill:#706f6f;fill-opacity:1;fill-rule:nonzero;stroke:none"
               transform="translate(0,13)"><tspan
                 id="tspan130"
                 y="0"
                 x="0 8.0369301 16.127174 23.497707 31.587952 35.479862 39.145195 48.288357">Level B2</tspan></text>
</g><g
             transform="matrix(3.122376,0,0,3.122376,160.98419,2162.9644)"
             id="g134"><text
               id="text138"
               style="font-variant:normal;font-weight:bold;font-size:13.32999992px;font-family:Raleway;-inkscape-font-specification:Raleway-Bold;writing-mode:lr-tb;fill:#464a4e;fill-opacity:1;fill-rule:nonzero;stroke:none"
               transform="translate(0,13)"><tspan
                 id="tspan136"
                 y="0"
                 x="0 10.463063 20.739527 33.588303 43.971394 54.154564 59.286388 70.149292 81.132149 90.462326 94.981071 104.31125 115.80058 126.78343 135.88702 141.01884 150.50894 161.75835 166.27708 176.74014 186.07031 196.25348 205.82355 210.95537 219.92567 225.0575 235.52055 245.79701 255.36708 260.4989 271.89493">CAMBRIDGE ENGLISH CERTIFICATION</tspan></text>
</g><g
             transform="matrix(3.122376,0,0,3.122376,166.20042,2260.7988)"
             id="g140"><text
               id="text144"
               style="font-variant:normal;font-weight:bold;font-size:13.32999992px;font-family:Raleway;-inkscape-font-specification:Raleway-Bold;writing-mode:lr-tb;fill:#706f6f;fill-opacity:1;fill-rule:nonzero;stroke:none"
               transform="translate(0,13)"><tspan
                 id="tspan142"
                 y="0"
                 x="0 7.9169803 13.341605 21.258585 29.575407 37.3591 45.609287 49.074699 54.912502 58.377914 66.947968 74.864944 80.289566 83.954895 90.845612 94.31102 106.98611 115.2363 120.62094 126.04556 134.38904 143.1057 151.44917 155.94084 159.60617 164.99081 172.90779 181.22461 184.69002 192.60699 198.03162 206.2818">France - Paris metropolitan area</tspan></text>
</g><g
             transform="matrix(3.122376,0,0,3.122376,883.80237,2252.8887)"
             id="g146"><text
               id="text150"
               style="font-variant:normal;font-weight:normal;font-size:13.32999992px;font-family:Lato;-inkscape-font-specification:Lato-Regular;writing-mode:lr-tb;fill:#464a4e;fill-opacity:1;fill-rule:nonzero;stroke:none"
               transform="translate(0,16)"><tspan
                 id="tspan148"
                 y="0"
                 x="0 5.6311188 13.061523 16.206955 23.077576 26.489563 34.219849 41.950134 49.68042">July 2021</tspan></text>
</g><g
             transform="matrix(3.122376,0,0,3.122376,170.79456,2508.7156)"
             id="g152"><text
               id="text156"
               style="font-variant:normal;font-weight:900;font-size:16px;font-family:Lato;-inkscape-font-specification:Lato-Heavy;writing-mode:lr-tb;fill:#464a4e;fill-opacity:1;fill-rule:nonzero;stroke:none"
               transform="translate(0,16)"><tspan
                 id="tspan154"
                 y="0"
                 x="0 14.303887 30.911745 41.247673 55.08757 68.927467">SKILLS</tspan></text>
</g><g
             transform="matrix(3.1246583,0,0,3.122376,784.44141,2539.9392)"
             id="g158"><path
               id="path160"
               style="fill:none;stroke:#464a4e;stroke-width:1;stroke-linecap:butt;stroke-linejoin:miter;stroke-miterlimit:10;stroke-dasharray:none;stroke-opacity:1"
               d="M 0.5,0.5 H 491.15189" /></g><g
             transform="matrix(3.122376,0,0,3.122376,167.67218,2665.6672)"
             id="g162"><text
               id="text166"
               style="font-variant:normal;font-weight:900;font-size:13.32999992px;font-family:Lato;-inkscape-font-specification:Lato-Heavy;writing-mode:lr-tb;fill:#706f6f;fill-opacity:1;fill-rule:nonzero;stroke:none"
               transform="translate(0,18)"><tspan
                 id="tspan164"
                 y="0"
                 x="0 10.309265 17.13324 22.157928 29.768265 37.11203 44.382492 47.847794 51.233124 54.618454 60.516129 63.681549">HardSkills :</tspan></text>
<text
               id="text170"
               style="font-variant:normal;font-weight:normal;font-size:13.32999992px;font-family:Lato;-inkscape-font-specification:Lato-Regular;writing-mode:lr-tb;fill:#706f6f;fill-opacity:1;fill-rule:nonzero;stroke:none"
               transform="translate(0,44)"><tspan
                 id="tspan168"
                 y="0"
                 x="0 10.17598 18.046204 30.421326 37.265289 40.290756 43.702744 52.605896 59.83638 67.066864 70.092331 73.504318 81.507828 91.683807 99.687317 102.71278 106.12477 114.12828 120.9989 125.77702 133.2141 140.77112 148.20819 151.23366 154.64565 162.64915 169.51978 176.45038 183.07443 194.03677 201.07401 204.09947 207.51146 215.38168 222.15234 225.35109 232.78816 237.56628 244.60352 249.45494 252.48041">HTML, CSS, PHP, Python, Pygame, Tkinter, </tspan></text>
<text
               id="text174"
               style="font-variant:normal;font-weight:normal;font-size:13.32999992px;font-family:Lato;-inkscape-font-specification:Lato-Regular;writing-mode:lr-tb;fill:#706f6f;fill-opacity:1;fill-rule:nonzero;stroke:none"
               transform="translate(255.90625,44)"><tspan
                 id="tspan172"
                 y="0"
                 x="0 5.6311188 12.255173 19.132462 25.756516 32.987 39.351151 44.202576 47.401321 54.871704 59.649826 62.675293 66.08728 74.990433">JavaScript, C,</tspan></text>
<text
               id="text178"
               style="font-variant:normal;font-weight:normal;font-size:13.32999992px;font-family:Lato;-inkscape-font-specification:Lato-Regular;writing-mode:lr-tb;fill:#706f6f;fill-opacity:1;fill-rule:nonzero;stroke:none"
               transform="translate(0,70)"><tspan
                 id="tspan176"
                 y="0"
                 x="0 9.0231018 16.486832 27.449173 30.647919 38.084991 41.283737 47.054794 51.832916 56.684341 63.308395 68.086517 71.285263 78.842285 86.279358 89.691345 103.49257 106.69131 114.12839 121.59212 129.14914 139.61835 145.3894 148.80139 156.03188 163.06911 167.92053 174.79782 181.83505 186.68648 189.71194 193.12393 200.35442 211.02354">Administration Windows Server, SQL</tspan></text>
</g><g
             transform="matrix(3.122376,0,0,3.122376,1289.8712,2684.437)"
             id="g180"><text
               id="text184"
               style="font-variant:normal;font-weight:900;font-size:13.32999992px;font-family:Lato;-inkscape-font-specification:Lato-Heavy;writing-mode:lr-tb;fill:#706f6f;fill-opacity:1;fill-rule:nonzero;stroke:none"
               transform="translate(0,18)"><tspan
                 id="tspan182"
                 y="0"
                 x="0 8.0501556 15.747116 23.444077 26.829407 32.727081 35.892502">Tools :</tspan></text>
<text
               id="text188"
               style="font-variant:normal;font-weight:normal;font-size:13.32999992px;font-family:Lato;-inkscape-font-specification:Lato-Regular;writing-mode:lr-tb;fill:#706f6f;fill-opacity:1;fill-rule:nonzero;stroke:none"
               transform="translate(0,44)"><tspan
                 id="tspan186"
                 y="0"
                 x="0 9.7361603 12.934906 17.713028 27.889008 35.319412 42.783142 45.808609">GitHub, </tspan></text>
<text
               id="text192"
               style="font-variant:normal;font-weight:normal;font-size:13.32999992px;font-family:Lato;-inkscape-font-specification:Lato-Regular;writing-mode:lr-tb;fill:#706f6f;fill-opacity:1;fill-rule:nonzero;stroke:none"
               transform="translate(49.234375,44)"><tspan
                 id="tspan190"
                 y="0"
                 x="0 8.9031525 15.527206 22.964279 29.841568 36.465622 39.491089 42.903076 53.079056 60.636078 65.4142 68.612946 76.169968 83.60704 86.632507 90.044495 99.067596 102.26634 108.0374 115.4678 122.09186 125.23729 128.64928 135.87976 140.65788 148.08829 155.55202 158.75076 166.30779 169.71977 178.62292 186.17995 193.64368 200.68091 203.70638 207.11836 216.14146 228.51659 242.31781 248.94186 253.79329 260.83051">Canva, Notion, Visual Studio Code, VMWare,</tspan></text>
<text
               id="text196"
               style="font-variant:normal;font-weight:normal;font-size:13.32999992px;font-family:Lato;-inkscape-font-specification:Lato-Regular;writing-mode:lr-tb;fill:#706f6f;fill-opacity:1;fill-rule:nonzero;stroke:none"
               transform="translate(0,70)"><tspan
                 id="tspan194"
                 y="0"
                 x="0 7.4703827 14.907455 22.377838 34.75296 41.623581 50.646683 58.110413 69.072754 72.2715 79.708572 82.734039 86.146027 98.521149 105.39177 112.62225 123.29138">phpMyAdmin, MySQL</tspan></text>
</g><g
             transform="matrix(3.122376,0,0,3.122376,173.55316,3014.5762)"
             id="g198"><text
               id="text202"
               style="font-variant:normal;font-weight:900;font-size:13.32999992px;font-family:Lato;-inkscape-font-specification:Lato-Heavy;writing-mode:lr-tb;fill:#706f6f;fill-opacity:1;fill-rule:nonzero;stroke:none"
               transform="translate(0,18)"><tspan
                 id="tspan200"
                 y="0"
                 x="0 7.3437653 14.614227 18.079529 21.464859 24.850189 30.747864 33.913284 37.378586 44.935608 48.101028 55.711365 60.736053 68.433014 75.516891 80.54158 87.685425 93.583099 99.480774 102.64619">Skills in progress :</tspan></text>
<text
               id="text206"
               style="font-variant:normal;font-weight:normal;font-size:13.32999992px;font-family:Lato;-inkscape-font-specification:Lato-Regular;writing-mode:lr-tb;fill:#706f6f;fill-opacity:1;fill-rule:nonzero;stroke:none"
               transform="translate(0,44)"><tspan
                 id="tspan204"
                 y="0"
                 x="0 5.6311188 12.255173 19.132462 25.756516 28.781982 32.19397 37.825089 44.449142 51.326431 57.950485 61.362473 69.059433 76.496506 81.274628 86.126053 93.163284 100.63367 105.48509 108.68384 114.4549 121.49213 124.90411 132.60107 140.0648 143.26355 148.04167 151.24042 158.79744 166.23451 169.25998">Java, Java Entreprise Edition, </tspan></text>
<text
               id="text210"
               style="font-variant:normal;font-weight:normal;font-size:13.32999992px;font-family:Lato;-inkscape-font-specification:Lato-Regular;writing-mode:lr-tb;fill:#706f6f;fill-opacity:1;fill-rule:nonzero;stroke:none"
               transform="translate(172.6875,44)"><tspan
                 id="tspan208"
                 y="0"
                 x="0 8.9031525 16.633438 24.363724 27.389191 30.801178 39.151215 46.188446 52.8125 59.176651 63.954773 66.98024 70.392227 77.622711 84.493332 95.455673 100.12717 107.68419 115.12126 121.99188 125.01735 128.42934 137.45244 145.45595">C++, React, Symfony, API</tspan></text>
<text
               id="text214"
               style="font-variant:normal;font-weight:normal;font-size:13.32999992px;font-family:Lato;-inkscape-font-specification:Lato-Regular;writing-mode:lr-tb;fill:#706f6f;fill-opacity:1;fill-rule:nonzero;stroke:none"
               transform="translate(0,70)"><tspan
                 id="tspan212"
                 y="0"
                 x="0 8.3500366 16.046997 23.277481 31.147705 34.173172 37.585159 51.386383 58.943405 63.79483 71.25856 78.728943 83.580368 90.617599 96.388657 102.15971 105.18518 108.59717 115.82765 123.52461">REST, Wordpress, SEO</tspan></text>
</g><g
             transform="matrix(3.1210213,0,0,3.122376,170.79456,946.99707)"
             id="g216"><path
               id="path218"
               style="fill:none;stroke:#464a4e;stroke-width:1;stroke-linecap:butt;stroke-linejoin:miter;stroke-miterlimit:10;stroke-dasharray:none;stroke-opacity:1"
               d="M 0.5,0.5 H 683.80042" /></g></g></g><g
         id="g220"><g
           clip-path="url(#clipPath226)"
           id="g222"><g
             transform="matrix(0.39630342,0,0,0.39275166,148.48071,718.30762)"
             id="g228"><path
               id="path230"
               style="fill:#464a4e;fill-opacity:1;fill-rule:nonzero;stroke:none"
               d="m 132.08,26.792999 c -33.677,0 -64.327002,11.290001 -87.182997,29.733002 -11,3.587601 -18.882,13.229004 -18.882,24.552002 0,4.183899 1.0816,8.123802 2.993401,11.627998 h 50.743999 c 1.911904,-3.504501 3.022202,-7.444397 3.022202,-11.627998 0,-6.512604 -2.599098,-12.471001 -6.907898,-17.039002 16.695999,-8.643402 35.855003,-13.556999 56.213003,-13.556999 20.358,0 39.517,4.913399 56.213,13.556999 -4.30881,4.5682 -6.9079,10.527001 -6.9079,17.039002 2e-5,4.183899 1.08161,8.123802 2.99339,11.627998 h 50.74401 c 1.91189,-3.504501 3.0222,-7.444397 3.0222,-11.627998 1e-5,-11.322998 -7.882,-20.964001 -18.882,-24.552002 -22.857,-18.443001 -53.50701,-29.733 -87.183,-29.733 z m 0,26.364998 c -26.835,0 -48.613997,23.030998 -48.613997,51.406003 0,2.3739 0.165451,4.70549 0.460534,6.9942 -4.727898,2.7287 -7.915299,7.82789 -7.915299,13.701 v 28.84 c 0,8.76249 7.068001,15.83099 15.831001,15.83099 h 80.477001 c 8.7625,0 15.831,-7.06799 15.831,-15.83099 v -28.84 c 0,-5.8676 -3.19431,-10.941 -7.9153,-13.672 0.29765,-2.2984 0.46053,-4.6386 0.46053,-7.023 0,-28.374999 -21.78,-51.405997 -48.614,-51.405997 l -0.001,-2.06e-4 z m 0,15.340996 c 13.995,8e-6 25.358,10.518997 25.358,23.486999 0,12.968008 -11.363,23.515998 -25.358,23.515998 -13.99499,0 -25.358,-10.54799 -25.358,-23.515998 0,-12.968002 11.363,-23.486999 25.358,-23.486999 z" /></g></g></g><g
         id="g232"><g
           clip-path="url(#clipPath238)"
           id="g234"><g
             transform="matrix(3.4693067,0,0,3.4346137,1532.6201,720.03802)"
             id="g240"><path
               id="path242"
               style="fill:#464a4e;fill-opacity:1;fill-rule:evenodd;stroke:none"
               d="M 8.4509201,5.3169003 C 7.58459,6.15095 7,7.4184198 7,9.1578903 7,10.2331 7.5891199,11.6344 8.5142698,13.1159 9.41611,14.5602 10.5402,15.9303 11.4065,16.9063 c 0.3256,0.367 0.861401,0.367 1.1871,0 0.8662,-0.976 1.990301,-2.3461 2.8921,-3.7904 C 16.4109,11.6344 17,10.2331 17,9.1578903 17,7.4184198 16.4154,6.15095 15.5491,5.3169003 14.675,4.47542 13.4358,4 12,4 10.5642,4 9.3249702,4.47542 8.4509201,5.3169003 Z M 7.0637999,3.8761001 C 8.3613195,2.62693 10.122,2 12,2 13.878,2 15.6387,2.62693 16.936199,3.8761001 18.2414,5.1327 19,6.94418 19,9.1578903 19,10.8263 18.1441,12.6348 17.1821,14.1753 c -0.985201,1.5778 -2.1904,3.042 -3.0927,4.0586 -1.1214,1.2635 -3.0574,1.2635 -4.1787803,0 C 9.0083199,17.2173 7.8031402,15.7531 6.8178501,14.1753 5.8558702,12.6348 5,10.8263 5,9.1578903 5,6.94418 5.7585602,5.1327 7.0637999,3.8761001 Z" /><path
               id="path244"
               style="fill:#464a4e;fill-opacity:1;fill-rule:evenodd;stroke:none"
               d="m 12,7 c -0.5523,0 -1,0.4477201 -1,1 0,0.5522804 0.4477,1 1,1 0.5523,0 1,-0.4477196 1,-1 C 13,7.4477201 12.5523,7 12,7 Z M 9,8 c 0,-1.6568499 1.3431,-3 3,-3 1.6569,0 3,1.3431501 3,3 0,1.6568499 -1.3431,3 -3,3 C 10.3431,11 9,9.6568499 9,8 Z" /><path
               id="path246"
               style="fill:#464a4e;fill-opacity:1;fill-rule:evenodd;stroke:none"
               d="M 8.9370003,15.1817 H 9.5 v 2 H 9.0637798 C 7.6826,17.360901 6.56283,17.6562 5.8147602,17.9967 c -0.3819604,0.1738 -0.6168003,0.336899 -0.7418904,0.4609 -0.01635,0.0162 -0.02963,0.0304 -0.04037,0.0428 0.03311,0.0384 0.09108,0.095 0.1904201,0.168399 0.2799702,0.2069 0.7490101,0.4352 1.4185,0.644499 C 7.9685001,19.728001 9.8632298,20 12,20 c 2.1368,0 4.0315,-0.271999 5.358601,-0.686701 0.669498,-0.209299 1.1385,-0.437599 1.418499,-0.644499 0.0993,-0.0734 0.157301,-0.130001 0.190401,-0.168399 -0.0107,-0.0124 -0.024,-0.0266 -0.0404,-0.0428 C 18.802,18.333599 18.5672,18.1705 18.1852,17.9967 17.437201,17.6562 16.3174,17.360901 14.9362,17.1817 H 14.5 v -2 h 0.563 l 0.0625,0.0079 c 1.5223,0.1926 2.8803,0.528 3.888099,0.9867 C 19.5152,16.404499 19.9806,16.6859 20.3349,17.037001 20.6922,17.3911 21,17.8843 21,18.5 21,19.311399 20.4757,19.900499 19.965599,20.277401 19.4359,20.668699 18.7334,20.979 17.955101,21.2222 16.386801,21.712299 14.2815,22 12,22 9.7184896,22 7.6132298,21.712299 6.0448699,21.2222 5.2666502,20.979 4.5641203,20.668699 4.03444,20.277401 3.5243399,19.900499 3,19.311399 3,18.5 3,17.8843 3.30777,17.3911 3.66506,17.037001 4.0193601,16.6859 4.4848099,16.404499 4.9863701,16.1763 c 1.0078597,-0.4587 2.36585,-0.7941 3.8881302,-0.9867 z" /></g></g></g><g
         id="g248"><g
           clip-path="url(#clipPath254)"
           id="g250"><g
             transform="matrix(0.19626364,0,0,0.19902201,736.77649,736.72058)"
             id="g256"><path
               id="path258"
               style="fill:#464a4e;fill-opacity:1;fill-rule:nonzero;stroke:none"
               d="m 181.67,181.692 c -2.349,2.341 -5.517,3.649 -8.827,3.649 -3.332,0 -6.5,-1.309 -8.84199,-3.649 L 1.223,18.886 C 0.72799999,20.895 0,22.819 0,24.997 v 199.99699 c 0,13.821 11.183,25.011 25.004,25.011 h 299.99899 c 13.76502,0 24.99701,-11.189 24.99701,-25.011 V 24.997 c 0,-3.438 -0.729,-6.713 -1.96701,-9.662 z" /><path
               id="path260"
               style="fill:#464a4e;fill-opacity:1;fill-rule:nonzero;stroke:none"
               d="M 172.843,155.181 327.5,0.50300002 C 326.63,0.41 325.88599,0 325.00299,0 H 25.004 C 22.826,0 20.909,0.708 18.9,1.217 Z" /></g></g></g><g
         id="g262"><g
           clip-path="url(#clipPath268)"
           id="g264"><g
             transform="matrix(3.122376,0,0,3.122376,476.43771,529.14935)"
             id="g270"><text
               id="text274"
               style="font-variant:normal;font-weight:900;font-size:14.65999985px;font-family:Lato;-inkscape-font-specification:Lato-Heavy;writing-mode:lr-tb;fill:#464a4e;fill-opacity:1;fill-rule:nonzero;stroke:none"
               transform="translate(12.5,14)"><tspan
                 id="tspan272"
                 y="0"
                 x="0 20.291714 42.81115 67.389755 87.212479 108.77194 128.25757 147.30351 167.45599 181.57018 200.27904 220.57076 235.64491 254.69086 276.66068 296.95239 315.99832 330.11249 348.82135 368.30698 389.86642 411.65305 430.69897 452.66879">COMPUTER SCIENCE STUDENT</tspan></text>
</g><g
             transform="matrix(3.122376,0,0,3.122376,302.80652,344.01688)"
             id="g276"><text
               id="text280"
               style="font-variant:normal;font-weight:normal;font-size:41.33000183px;font-family:Raleway;-inkscape-font-specification:Raleway-Regular;writing-mode:lr-tb;fill:#464a4e;fill-opacity:1;fill-rule:nonzero;stroke:none"
               transform="translate(6.21875,39)"><tspan
                 id="tspan278"
                 y="0"
                 x="0 30.5009 63.853439 96.792709 130.14525 166.06013">SABAH </tspan></text>
<text
               id="text284"
               style="font-variant:normal;font-weight:bold;font-size:41.33000183px;font-family:Raleway;-inkscape-font-specification:Raleway-Bold;writing-mode:lr-tb;fill:#464a4e;fill-opacity:1;fill-rule:nonzero;stroke:none"
               transform="translate(188.23438,39)"><tspan
                 id="tspan282"
                 y="0"
                 x="0 33.187241 66.705093 101.71077 131.9637 164.86163 197.75957 230.94681 267.151 308.31458 341.50183 378.44995">ABDERRAHMANE</tspan></text>
</g><g
             transform="matrix(3.122376,0,0,3.122376,303.25266,714.71832)"
             id="g286"><text
               id="text290"
               style="font-variant:normal;font-weight:normal;font-size:13.32999992px;font-family:Roboto;-inkscape-font-specification:Roboto-Regular;writing-mode:lr-tb;fill:#706f6f;fill-opacity:1;fill-rule:nonzero;stroke:none"
               transform="translate(0,18)"><tspan
                 id="tspan288"
                 y="0"
                 x="0 7.5556488 15.039703 22.523758 25.823257 33.307312 36.606812 44.090866 51.574921 54.87442 62.358475 69.842529 73.142029 80.626083 88.110138 91.409637 98.893692">+33 7 89 22 74 80</tspan></text>
</g><g
             transform="matrix(3.122376,0,0,3.122376,1671.4939,710.74536)"
             id="g292"><text
               id="text296"
               style="font-variant:normal;font-weight:normal;font-size:13.32999992px;font-family:Roboto;-inkscape-font-specification:Roboto-Regular;writing-mode:lr-tb;fill:#706f6f;fill-opacity:1;fill-rule:nonzero;stroke:none"
               transform="translate(0,18)"><tspan
                 id="tspan294"
                 y="0"
                 x="0 7.3669128 11.876877 19.126648 26.480545 33.456985 40.518036 43.817535 47.494492 50.793991 59.202164 66.451935 70.961899 74.19632 81.068634 84.368134 96.049774 103.11082 107.4646 111.97456 119.57576 127.05331 134.65451 137.88893 141.12335 145.47713 152.7269 160.0808 163.38029 170.63007 175.14003 182.20108">France - Paris metropolitan area</tspan></text>
</g><g
             transform="matrix(3.122376,0,0,3.122376,873.20557,717.0495)"
             id="g298"><text
               id="text302"
               style="font-variant:normal;font-weight:normal;font-size:12px;font-family:Roboto;-inkscape-font-specification:Roboto-Regular;writing-mode:lr-tb;fill:#706f6f;fill-opacity:1;fill-rule:nonzero;stroke:none"
               transform="translate(0,17)"><tspan
                 id="tspan300"
                 y="0"
                 x="0 6.1875 12.714844 19.447266 25.974609 32.583984 35.742188 42.269531 49.001953 55.769531 62.126953 66.1875 70.248047 76.775391 83.384766 93.902344 100.42969 107.05078 113.4082 124.18359 130.37109 136.98633 143.71875 146.63086 153.25195 157.41797 164.26172 167.41992 173.70117 180.54492">sabah.abderrahmane@supinfo.com</tspan></text>
</g><g
             transform="matrix(3.122376,0,0,3.122376,167.67218,993.53485)"
             id="g304"><text
               id="text308"
               style="font-variant:normal;font-weight:normal;font-size:13.32999992px;font-family:Lato;-inkscape-font-specification:Lato-Regular;writing-mode:lr-tb;fill:#706f6f;fill-opacity:1;fill-rule:nonzero;stroke:none"
               transform="translate(0,16)"><tspan
                 id="tspan306"
                 y="0"
                 x="0 3.7318573 8.4680634 15.092117 26.054459 30.790665 37.154816 44.58522 49.436646 54.288071 61.325302 68.762375 73.540497 76.685928 83.556549 88.292755 94.916809 99.653015 106.01717 113.57419 124.53653 132.00691 139.43732 144.21544 151.25267 156.1041 160.8403 166.61136 172.97551 176.17426 183.21149 190.64856 197.01271 204.04994 208.78615 214.55721 219.33533 226.76573 234.22946 241.26669 248.70377 253.48189 258.21808 264.84213 269.62024 274.35645 281.58691 289.01733 296.48773 299.68646 307.12354 311.79504 319.35205 324.08826 332.09177 338.71582 343.56726 346.76599 352.53705 355.5625 360.29871 366.92276 373.28693 378.06506 381.26379 388.14108 395.17831 398.32373 405.19434 409.93054 415.7016 422.73883 429.77606 436.54672 439.74548 447.18256 454.11316 458.84937 465.47342 470.20963 474.98773 485.45694 493.01398 497.96536 508.9277 516.48474 523.92181 528.69995 536.13702 540.87323 544.07196 551.50903 556.28717 563.3244 568.17584 575.61292 581.38397 588.82104 592.01978 599.49017 604.22638 609.99744 614.77557 621.39966 626.2511 631.02924 634.22797 641.66504 648.59564 653.33185 658.00336 662.8548 670.4118">I am currently a computer science student at Supinfo Paris, actively seeking a two-month internship starting from</tspan></text>
<text
               id="text312"
               style="font-variant:normal;font-weight:normal;font-size:13.32999992px;font-family:Lato;-inkscape-font-specification:Lato-Regular;writing-mode:lr-tb;fill:#706f6f;fill-opacity:1;fill-rule:nonzero;stroke:none"
               transform="translate(0,39)"><tspan
                 id="tspan310"
                 y="0"
                 x="0 10.962341 14.161087 21.624817 26.576202 32.207321 39.637726 47.074799 54.11203 57.257462 60.669449 64.401306 67.813293 74.437347 85.399689 88.811676 95.848907 102.47296 109.40356 116.4408 121.29222 124.70421 129.48233 137.03935 140.45134 147.07539 154.54578 162.01616 165.16159 172.03221 175.4442 186.40654 193.27716 196.68915 202.46021 209.23087 212.42961 215.57504 218.72047 224.49153 227.90352 234.52757 241.96465 249.42838 252.84036 263.8027 270.42676 277.19742 284.23465 287.64664 294.27069 297.68268 308.64502 315.68225 322.3063 329.74338 332.94214 340.37921 347.30981 351.98132 359.41174 362.55719 365.96918 372.33331 379.89032 387.32739 392.10553 396.95697 400.1557 407.61945 415.04987 419.828 423.02673 430.58374 438.02081 441.4328 446.21094 453.76794 457.17993 463.80399 467.21597 474.68634 479.53778 487.09479 491.7663 498.80353 504.57458 510.34564 513.54437 521.10138 528.53845 535.16248 538.30792 541.71991 546.49805 553.53528 560.1593 571.12164">mid-June. I am eager to apply my skills and make a meaningful contribution to a professional team.</tspan></text>
</g></g></g><g
         id="g314"><g
           clip-path="url(#clipPath320)"
           id="g316"><g
             transform="matrix(0.34363317,0,0,0.34363317,737.48889,829.38281)"
             id="g322"><path
               id="path324"
               style="fill:#464a4e;fill-opacity:1;fill-rule:nonzero;stroke:none"
               d="M 183,0 H 16.600006 C 7.4000063,0 5.7220459e-6,7.5 5.7220459e-6,16.6 v 166.7 c 0,9.2 7.4999999779541,16.60001 16.6000002779541,16.60001 H 182.90001 c 9.2,0 16.60001,-7.5 16.60001,-16.60001 V 16.600006 C 199.60002,7.5000057 192.20001,5.7220459e-6 183.00002,5.7220459e-6 Z M 59.099998,164.89999 h -29.5 V 76.299995 h 29.5 z M 44.299999,65.599991 C 35,65.599991 27.5,58.099991 27.5,48.799992 c 0,-9.3 7.5,-16.8 16.799999,-16.8 9.299999,0 16.799999,7.5 16.799999,16.8 0,9.299999 -7.5,16.799999 -16.799999,16.799999 z M 170.10001,164.89999 H 140.5 L 139.8,112.3 c 0,0 0.7,-14.000005 -14.59999,-13.900006 C 109.90001,98.499992 107.8,112.3 107.8,112.3 v 52.59999 H 78 V 76.299995 h 28.6 v 12.199997 c 0,0 1.2,-4 7.8,-8.699997 6.60001,-4.699997 17.49999,-5.699997 22.20001,-5.5 4.70001,0.199997 11.1,-0.599998 21.8,6.800003 11.5,7.900002 11.8,28.600002 11.8,28.600002 z" /></g></g></g><g
         id="g326"><g
           clip-path="url(#clipPath332)"
           id="g328"><g
             transform="matrix(3.122376,0,0,3.122376,873.20557,821.35571)"
             id="g334"><text
               id="text338"
               style="font-variant:normal;font-weight:normal;font-size:12px;font-family:Roboto;-inkscape-font-specification:Roboto-Regular;writing-mode:lr-tb;fill:#706f6f;fill-opacity:1;fill-rule:nonzero;stroke:none"
               transform="translate(0,17)"><tspan
                 id="tspan336"
                 y="0"
                 x="0 9.0175781 18.035156 27.052734 30.210938 33.123047 36.035156 42.65625 48.738281 55.095703 61.863281 64.775391 71.396484 74.554688 80.835938 87.679688 98.197266 103.14258 106.05469 112.67578 117.62109 123.80859 130.33594 137.06836 143.5957 150.20508 153.51562 160.04297 166.77539 173.54297 179.90039 183.96094 188.02148 194.54883 201.1582 211.67578 218.20312 224.82422">www.linkedin.com/in/sabah-abderrahmane</tspan></text>
</g></g></g></g></g></svg>